<svg width="30" height="30" viewBox="0 0 30 30" fill="none" xmlns="http://www.w3.org/2000/svg">
<rect width="30" height="30" rx="6" fill="#3E363F"/>
<path d="M22.6488 20.8462L23 20.978C22.8683 21.7106 22.6781 22.3407 22.4294 22.8681C22.1952 23.3956 21.8953 23.8059 21.5295 24.0989C21.2369 24.348 20.8491 24.5604 20.3663 24.7363C19.8834 24.9121 19.3128 25 18.6543 25C17.8642 25 17.0887 24.8755 16.3279 24.6264C15.5816 24.3773 14.8134 24.0696 14.0233 23.7033C13.2478 23.337 12.4138 22.9927 11.5213 22.6703C11.4188 22.641 11.3164 22.6117 11.214 22.5824C11.1262 22.5531 11.0457 22.5311 10.9726 22.5165C10.6946 22.6484 10.3946 22.7509 10.0727 22.8242C9.7508 22.8974 9.44353 22.9341 9.1509 22.9341C8.85826 22.9341 8.61683 22.8901 8.42662 22.8022C8.2364 22.7143 8.14129 22.5824 8.14129 22.4066C8.14129 22.0403 8.53635 21.8571 9.32648 21.8571C9.8386 21.8571 10.3873 21.9451 10.9726 22.1209C11.5139 21.9744 11.9749 21.8059 12.3553 21.6154C12.7503 21.4396 13.1527 21.2711 13.5624 21.1099C13.9867 20.9487 14.4842 20.8462 15.0549 20.8022L15.0768 21.1538C14.6379 21.1978 14.2501 21.2784 13.9136 21.3956C13.577 21.5275 13.2405 21.6667 12.904 21.8132C12.5821 21.9597 12.1943 22.0989 11.7407 22.2308C12.6918 22.3333 13.6063 22.4359 14.4842 22.5385C15.3768 22.641 16.2035 22.7143 16.9643 22.7582C17.7398 22.8168 18.4348 22.8242 19.0494 22.7802C20.0005 22.707 20.754 22.5238 21.31 22.2308C21.866 21.9377 22.3123 21.4762 22.6488 20.8462ZM14.5062 5C15.9986 5 17.3082 5.31502 18.4348 5.94506C19.5615 6.57509 20.4321 7.48352 21.0466 8.67033C21.6758 9.84249 21.9904 11.2711 21.9904 12.956C21.9904 14.5971 21.6685 16.033 21.0247 17.2637C20.3955 18.4945 19.5103 19.4542 18.369 20.1429C17.2423 20.8315 15.9474 21.1758 14.4842 21.1758C12.9918 21.1758 11.6822 20.8608 10.5556 20.2308C9.4289 19.6007 8.55099 18.6923 7.92181 17.5055C7.30727 16.3187 7 14.8901 7 13.2198C7 11.5788 7.32191 10.1429 7.96571 8.91209C8.60951 7.68132 9.49475 6.72161 10.6214 6.03297C11.7481 5.34432 13.043 5 14.5062 5ZM14.4184 5.39561C13.5551 5.39561 12.8016 5.72528 12.1578 6.38462C11.5286 7.04396 11.0384 7.95238 10.6872 9.10989C10.3361 10.2674 10.1605 11.6081 10.1605 13.1319C10.1605 14.685 10.358 16.0403 10.7531 17.1978C11.1482 18.3407 11.6822 19.2271 12.3553 19.8571C13.0284 20.4725 13.7673 20.7802 14.572 20.7802C15.4353 20.7802 16.1815 20.4506 16.8107 19.7912C17.4545 19.1319 17.952 18.2234 18.3032 17.0659C18.6543 15.8938 18.8299 14.5531 18.8299 13.044C18.8299 11.4762 18.6324 10.1209 18.2373 8.97802C17.8423 7.83517 17.3082 6.95605 16.6351 6.34066C15.9767 5.71062 15.2378 5.39561 14.4184 5.39561Z" fill="white"/>
</svg>
