<svg width="100" height="18" viewBox="0 0 100 18" fill="none" xmlns="http://www.w3.org/2000/svg">
<path d="M5.61096 0.386279V0.766683C5.17983 0.779363 4.85015 0.830083 4.62191 0.918844C4.40635 0.994925 4.26052 1.14709 4.18444 1.37533C4.10836 1.59089 4.07032 1.93325 4.07032 2.40242V11.9886C4.07032 12.3944 4.10202 12.705 4.16542 12.9206C4.2415 13.1235 4.37464 13.2566 4.56485 13.32C4.75505 13.3834 5.02767 13.4151 5.38271 13.4151H6.46687C6.96139 13.4151 7.39252 13.3264 7.76024 13.1488C8.14064 12.9713 8.47033 12.7114 8.74929 12.369C9.02825 12.0266 9.25649 11.6082 9.43402 11.1137C9.61154 10.6065 9.73834 10.0359 9.81442 9.40185H10.2519C10.2138 9.82029 10.1948 10.3655 10.1948 11.0376C10.1948 11.3166 10.2012 11.716 10.2138 12.2359C10.2392 12.7557 10.2772 13.2946 10.328 13.8526C9.68128 13.8272 8.95217 13.8145 8.14064 13.8145C7.32911 13.8019 6.60635 13.7955 5.97234 13.7955C5.66802 13.7955 5.28127 13.7955 4.81211 13.7955C4.34294 13.7955 3.8294 13.8019 3.27147 13.8145C2.72623 13.8145 2.1683 13.8209 1.5977 13.8336C1.03977 13.8336 0.507205 13.8399 0 13.8526V13.4722C0.418444 13.4468 0.729107 13.3961 0.931989 13.32C1.14755 13.2439 1.28703 13.0918 1.35043 12.8635C1.42651 12.6353 1.46456 12.2929 1.46456 11.8364V2.40242C1.46456 1.93325 1.42651 1.59089 1.35043 1.37533C1.28703 1.14709 1.14755 0.994925 0.931989 0.918844C0.729107 0.830083 0.418444 0.779363 0 0.766683V0.386279C0.317003 0.398959 0.722767 0.411639 1.21729 0.424319C1.71182 0.436999 2.24438 0.443339 2.81499 0.443339C3.33487 0.443339 3.84842 0.436999 4.35562 0.424319C4.86283 0.411639 5.28127 0.398959 5.61096 0.386279Z" fill="black"/>
<path d="M13.6287 0.119996C14.0852 0.119996 14.4593 0.246797 14.7509 0.5004C15.0425 0.754002 15.1884 1.09003 15.1884 1.50847C15.1884 1.92691 15.0425 2.26294 14.7509 2.51654C14.4593 2.77014 14.0852 2.89694 13.6287 2.89694C13.1722 2.89694 12.7982 2.77014 12.5065 2.51654C12.2149 2.26294 12.0691 1.92691 12.0691 1.50847C12.0691 1.09003 12.2149 0.754002 12.5065 0.5004C12.7982 0.246797 13.1722 0.119996 13.6287 0.119996ZM14.9601 3.80991V12.0837C14.9601 12.6163 15.0552 12.9776 15.2454 13.1678C15.4483 13.3581 15.7843 13.4532 16.2535 13.4532V13.8526C16.0253 13.8399 15.6766 13.8272 15.2074 13.8145C14.7382 13.7892 14.2627 13.7765 13.7809 13.7765C13.3117 13.7765 12.8362 13.7892 12.3544 13.8145C11.8725 13.8272 11.5111 13.8399 11.2702 13.8526V13.4532C11.7394 13.4532 12.0691 13.3581 12.2593 13.1678C12.4621 12.9776 12.5636 12.6163 12.5636 12.0837V6.11136C12.5636 5.52807 12.4685 5.10329 12.2783 4.837C12.1008 4.55804 11.7647 4.41856 11.2702 4.41856V4.01914C11.676 4.05718 12.0691 4.0762 12.4495 4.0762C12.9186 4.0762 13.3624 4.05718 13.7809 4.01914C14.212 3.96842 14.6051 3.89867 14.9601 3.80991Z" fill="black"/>
<path d="M23.9494 3.75285C24.482 3.75285 24.9067 3.82259 25.2237 3.96207C25.5534 4.10156 25.8197 4.27908 26.0226 4.49464C26.2508 4.73556 26.4093 5.04623 26.4981 5.42663C26.5995 5.80703 26.6503 6.32058 26.6503 6.96727V12.0837C26.6503 12.6163 26.7454 12.9776 26.9356 13.1678C27.1384 13.3581 27.4745 13.4532 27.9436 13.4532V13.8526C27.7154 13.8399 27.3604 13.8272 26.8785 13.8145C26.4093 13.7892 25.9529 13.7765 25.5091 13.7765C25.0399 13.7765 24.5834 13.7892 24.1396 13.8145C23.6958 13.8272 23.3661 13.8399 23.1505 13.8526V13.4532C23.5563 13.4532 23.8416 13.3581 24.0065 13.1678C24.1713 12.9776 24.2537 12.6163 24.2537 12.0837V6.32058C24.2537 5.97822 24.222 5.67389 24.1586 5.40761C24.0952 5.12865 23.9684 4.91308 23.7782 4.76092C23.588 4.59608 23.3154 4.51366 22.9603 4.51366C22.5419 4.51366 22.1678 4.62778 21.8382 4.85602C21.5211 5.08427 21.2675 5.40127 21.0773 5.80703C20.8998 6.20012 20.8111 6.64392 20.8111 7.13845V12.0837C20.8111 12.6163 20.8935 12.9776 21.0583 13.1678C21.2232 13.3581 21.5085 13.4532 21.9142 13.4532V13.8526C21.6987 13.8399 21.3753 13.8272 20.9442 13.8145C20.5131 13.7892 20.0756 13.7765 19.6318 13.7765C19.1626 13.7765 18.6871 13.7892 18.2053 13.8145C17.7235 13.8272 17.3621 13.8399 17.1211 13.8526V13.4532C17.5903 13.4532 17.92 13.3581 18.1102 13.1678C18.3131 12.9776 18.4145 12.6163 18.4145 12.0837V6.09234C18.4145 5.52173 18.3194 5.10329 18.1292 4.837C17.9517 4.55804 17.6157 4.41856 17.1211 4.41856V4.01914C17.5269 4.05718 17.92 4.0762 18.3004 4.0762C18.7696 4.0762 19.2134 4.05718 19.6318 4.01914C20.0629 3.96842 20.456 3.89867 20.8111 3.80991V5.71193C21.1281 4.98917 21.5655 4.48196 22.1235 4.19032C22.6814 3.89867 23.29 3.75285 23.9494 3.75285Z" fill="black"/>
<path d="M32.1582 17.4284C31.4101 17.4284 30.7317 17.3586 30.1231 17.2192C29.5144 17.0797 29.0326 16.8704 28.6775 16.5915C28.3225 16.3252 28.145 15.9828 28.145 15.5644C28.145 15.1586 28.3225 14.7972 28.6775 14.4802C29.0326 14.1632 29.5525 13.9223 30.2372 13.7575L30.3703 14.0618C30.1294 14.2013 29.9456 14.3915 29.8188 14.6324C29.692 14.8733 29.6286 15.1269 29.6286 15.3932C29.6286 15.9385 29.8758 16.3569 30.3703 16.6485C30.8775 16.9529 31.5496 17.105 32.3865 17.105C32.9571 17.105 33.4833 17.0289 33.9652 16.8768C34.447 16.7246 34.8337 16.49 35.1254 16.173C35.417 15.856 35.5629 15.463 35.5629 14.9938C35.5629 14.6007 35.417 14.271 35.1254 14.0047C34.8464 13.7385 34.2822 13.6053 33.4326 13.6053H32.1773C31.7081 13.6053 31.277 13.5546 30.8839 13.4532C30.5035 13.3517 30.1992 13.1869 29.9709 12.9586C29.7427 12.7304 29.6286 12.4134 29.6286 12.0076C29.6286 11.5131 29.8314 11.0693 30.2372 10.6762C30.643 10.2704 31.277 9.87736 32.1392 9.49695L32.3484 9.66813C32.0314 9.83298 31.7461 10.0105 31.4925 10.2007C31.2516 10.3909 31.1312 10.6318 31.1312 10.9235C31.1312 11.3292 31.4101 11.5321 31.968 11.5321H34.1173C34.7767 11.5321 35.36 11.6145 35.8672 11.7794C36.3871 11.9442 36.7992 12.2042 37.1035 12.5592C37.4078 12.9142 37.56 13.3834 37.56 13.9667C37.56 14.5753 37.3634 15.1396 36.9704 15.6595C36.5773 16.1921 35.9813 16.6168 35.1825 16.9338C34.3963 17.2635 33.3882 17.4284 32.1582 17.4284ZM32.3294 9.80127C31.6447 9.80127 31.0234 9.69983 30.4654 9.49695C29.9202 9.28139 29.4891 8.95171 29.1721 8.5079C28.8551 8.05142 28.6966 7.47447 28.6966 6.77706C28.6966 6.07966 28.8551 5.50905 29.1721 5.06525C29.4891 4.62144 29.9202 4.29176 30.4654 4.0762C31.0234 3.86063 31.6447 3.75285 32.3294 3.75285C33.0268 3.75285 33.6482 3.86063 34.1934 4.0762C34.7386 4.29176 35.1698 4.62144 35.4868 5.06525C35.8038 5.50905 35.9623 6.07966 35.9623 6.77706C35.9623 7.47447 35.8038 8.05142 35.4868 8.5079C35.1698 8.95171 34.7386 9.28139 34.1934 9.49695C33.6482 9.69983 33.0268 9.80127 32.3294 9.80127ZM32.3294 9.45891C32.7098 9.45891 33.0078 9.26871 33.2234 8.88831C33.4516 8.49522 33.5657 7.79147 33.5657 6.77706C33.5657 5.76265 33.4516 5.06525 33.2234 4.68484C33.0078 4.29176 32.7098 4.09522 32.3294 4.09522C31.949 4.09522 31.6447 4.29176 31.4165 4.68484C31.2009 5.06525 31.0931 5.76265 31.0931 6.77706C31.0931 7.79147 31.2009 8.49522 31.4165 8.88831C31.6447 9.26871 31.949 9.45891 32.3294 9.45891ZM35.2015 5.36957L34.8401 5.23643C35.0303 4.76726 35.341 4.37418 35.7721 4.05718C36.2032 3.72749 36.6597 3.56265 37.1415 3.56265C37.5093 3.56265 37.7946 3.66409 37.9974 3.86697C38.213 4.06986 38.3208 4.35516 38.3208 4.72288C38.3208 5.10329 38.2193 5.38225 38.0165 5.55977C37.8136 5.73729 37.5917 5.82605 37.3508 5.82605C37.1352 5.82605 36.9386 5.75631 36.7611 5.61683C36.5836 5.46467 36.4822 5.23643 36.4568 4.93211C36.4314 4.6151 36.5329 4.22202 36.7611 3.75285L36.9513 3.82893C36.4568 4.01914 36.0891 4.22836 35.8482 4.4566C35.6072 4.68484 35.3917 4.98917 35.2015 5.36957Z" fill="black"/>
<path d="M43.48 3.75285C44.3549 3.75285 45.1284 3.93037 45.8005 4.28542C46.4852 4.62778 47.0241 5.17937 47.4172 5.94018C47.823 6.70098 48.0258 7.70271 48.0258 8.94537C48.0258 10.188 47.823 11.1897 47.4172 11.9506C47.0241 12.7114 46.4852 13.2629 45.8005 13.6053C45.1284 13.9477 44.3549 14.1189 43.48 14.1189C42.6051 14.1189 41.8253 13.9477 41.1405 13.6053C40.4558 13.2629 39.9169 12.7114 39.5238 11.9506C39.1307 11.1897 38.9342 10.188 38.9342 8.94537C38.9342 7.70271 39.1307 6.70098 39.5238 5.94018C39.9169 5.17937 40.4558 4.62778 41.1405 4.28542C41.8253 3.93037 42.6051 3.75285 43.48 3.75285ZM43.48 4.13326C42.884 4.13326 42.3959 4.51366 42.0155 5.27447C41.6477 6.0226 41.4639 7.24623 41.4639 8.94537C41.4639 10.6445 41.6477 11.8681 42.0155 12.6163C42.3959 13.3644 42.884 13.7385 43.48 13.7385C44.0633 13.7385 44.5451 13.3644 44.9255 12.6163C45.3059 11.8681 45.4962 10.6445 45.4962 8.94537C45.4962 7.24623 45.3059 6.0226 44.9255 5.27447C44.5451 4.51366 44.0633 4.13326 43.48 4.13326Z" fill="black"/>
<path d="M63.2152 13.8336L63.5196 13.9477C63.4054 14.5817 63.2406 15.1269 63.025 15.5834C62.8222 16.0399 62.5622 16.3949 62.2452 16.6485C61.9916 16.8641 61.6556 17.048 61.2371 17.2001C60.8187 17.3523 60.3242 17.4284 59.7536 17.4284C59.0688 17.4284 58.3968 17.3206 57.7374 17.105C57.0907 16.8895 56.425 16.6232 55.7403 16.3062C55.0683 15.9892 54.3455 15.6912 53.572 15.4122C53.4832 15.3869 53.3945 15.3615 53.3057 15.3361C53.2296 15.3108 53.1599 15.2918 53.0965 15.2791C52.8556 15.3932 52.5956 15.482 52.3167 15.5454C52.0377 15.6088 51.7714 15.6405 51.5178 15.6405C51.2642 15.6405 51.055 15.6024 50.8902 15.5264C50.7253 15.4503 50.6429 15.3362 50.6429 15.184C50.6429 14.867 50.9853 14.7085 51.67 14.7085C52.1138 14.7085 52.5893 14.7846 53.0965 14.9367C53.5657 14.8099 53.9651 14.6641 54.2948 14.4993C54.6371 14.3471 54.9858 14.2013 55.3409 14.0618C55.7086 13.9223 56.1397 13.8336 56.6343 13.7955L56.6533 14.0998C56.2729 14.1379 55.9369 14.2076 55.6452 14.3091C55.3536 14.4232 55.0619 14.5436 54.7703 14.6704C54.4913 14.7972 54.1553 14.9177 53.7622 15.0318C54.5864 15.1206 55.3789 15.2093 56.1397 15.2981C56.9132 15.3869 57.6296 15.4503 58.289 15.4883C58.9611 15.539 59.5634 15.5454 60.0959 15.5073C60.9201 15.4439 61.5732 15.2854 62.055 15.0318C62.5369 14.7782 62.9236 14.3788 63.2152 13.8336ZM56.1588 0.119995C57.4521 0.119995 58.587 0.392618 59.5634 0.937864C60.5397 1.48311 61.2942 2.26928 61.8268 3.29637C62.372 4.31078 62.6446 5.54709 62.6446 7.00531C62.6446 8.42548 62.3657 9.66813 61.8078 10.7333C61.2625 11.7984 60.4954 12.6289 59.5063 13.2249C58.5299 13.8209 57.4077 14.1189 56.1397 14.1189C54.8464 14.1189 53.7115 13.8462 52.7351 13.301C51.7587 12.7557 50.9979 11.9696 50.4527 10.9425C49.9201 9.9154 49.6538 8.67908 49.6538 7.23355C49.6538 5.81337 49.9328 4.57072 50.4907 3.50559C51.0487 2.44046 51.8158 1.60991 52.7922 1.01395C53.7685 0.417979 54.8907 0.119995 56.1588 0.119995ZM56.0827 0.462359C55.3345 0.462359 54.6815 0.747662 54.1236 1.31827C53.5783 1.88887 53.1536 2.67504 52.8492 3.67677C52.5449 4.6785 52.3928 5.83873 52.3928 7.15747C52.3928 8.50156 52.5639 9.67447 52.9063 10.6762C53.2487 11.6653 53.7115 12.4324 54.2948 12.9776C54.8781 13.5102 55.5184 13.7765 56.2158 13.7765C56.9639 13.7765 57.6106 13.4912 58.1559 12.9206C58.7138 12.35 59.1449 11.5638 59.4492 10.5621C59.7536 9.54767 59.9057 8.38744 59.9057 7.08139C59.9057 5.72461 59.7345 4.5517 59.3922 3.56265C59.0498 2.5736 58.587 1.81279 58.0037 1.28023C57.4331 0.734982 56.7928 0.462359 56.0827 0.462359Z" fill="black"/>
<path d="M73.2083 3.80991V11.7984C73.2083 12.369 73.3034 12.7938 73.4936 13.0727C73.6838 13.339 74.0198 13.4722 74.5016 13.4722V13.8716C74.1086 13.8336 73.7155 13.8145 73.3224 13.8145C72.8532 13.8145 72.4031 13.8336 71.972 13.8716C71.5535 13.9096 71.1668 13.9794 70.8117 14.0808V12.1788C70.4947 12.8762 70.0573 13.3771 69.4993 13.6814C68.9541 13.973 68.3645 14.1189 67.7305 14.1189C67.2359 14.1189 66.8175 14.0491 66.4751 13.9096C66.1454 13.7828 65.8792 13.6053 65.6763 13.3771C65.4607 13.1361 65.3086 12.8191 65.2198 12.4261C65.131 12.033 65.0867 11.5258 65.0867 10.9044V6.09234C65.0867 5.52173 64.9915 5.10329 64.8013 4.837C64.6238 4.55804 64.2878 4.41856 63.7933 4.41856V4.01914C64.199 4.05718 64.5921 4.0762 64.9725 4.0762C65.4417 4.0762 65.8855 4.05718 66.3039 4.01914C66.7351 3.96842 67.1282 3.89867 67.4832 3.80991V11.5702C67.4832 11.9125 67.5086 12.2168 67.5593 12.4831C67.6227 12.7494 67.7431 12.965 67.9207 13.1298C68.0982 13.282 68.3645 13.3581 68.7195 13.3581C69.1126 13.3581 69.4676 13.2439 69.7846 13.0157C70.1016 12.7874 70.3489 12.4768 70.5264 12.0837C70.7166 11.6906 70.8117 11.2468 70.8117 10.7523V6.09234C70.8117 5.52173 70.7166 5.10329 70.5264 4.837C70.3489 4.55804 70.0129 4.41856 69.5184 4.41856V4.01914C69.9241 4.05718 70.3172 4.0762 70.6976 4.0762C71.1668 4.0762 71.6106 4.05718 72.029 4.01914C72.4601 3.96842 72.8532 3.89867 73.2083 3.80991Z" fill="black"/>
<path d="M80.1636 3.75285C81.2794 3.75285 82.1544 4.08888 82.7884 4.76092C83.4224 5.43297 83.7394 6.50444 83.7394 7.97534H77.3296L77.3105 7.61395H81.533C81.5584 6.99263 81.5203 6.42202 81.4189 5.90213C81.3175 5.36957 81.1526 4.94478 80.9244 4.62778C80.7088 4.31078 80.4235 4.15228 80.0685 4.15228C79.5866 4.15228 79.1682 4.43758 78.8131 5.00818C78.4581 5.56611 78.2362 6.48542 78.1474 7.76611L78.2235 7.88023C78.1981 8.04508 78.1791 8.2226 78.1665 8.4128C78.1665 8.603 78.1665 8.7932 78.1665 8.98341C78.1665 9.85833 78.2933 10.5811 78.5469 11.1517C78.8005 11.7223 79.1301 12.1408 79.5359 12.407C79.9417 12.6733 80.3601 12.8065 80.7912 12.8065C81.0829 12.8065 81.3809 12.7621 81.6852 12.6733C81.9895 12.5846 82.2875 12.4197 82.5791 12.1788C82.8708 11.9379 83.1371 11.5955 83.378 11.1517L83.7394 11.3039C83.5999 11.7477 83.3653 12.1915 83.0356 12.6353C82.7186 13.0664 82.3065 13.4215 81.7993 13.7004C81.2921 13.9794 80.6961 14.1189 80.0114 14.1189C79.1492 14.1189 78.3884 13.9287 77.729 13.5483C77.0696 13.1678 76.5561 12.6036 76.1883 11.8555C75.8206 11.0946 75.6368 10.169 75.6368 9.07851C75.6368 7.92462 75.827 6.95459 76.2074 6.16842C76.6005 5.38225 77.1394 4.78628 77.8241 4.38052C78.5088 3.96207 79.2886 3.75285 80.1636 3.75285Z" fill="black"/>
<path d="M88.6063 3.75285C89.1389 3.75285 89.5954 3.82893 89.9758 3.98109C90.3562 4.13326 90.6351 4.2664 90.8127 4.38052C91.2438 4.69752 91.5037 4.49464 91.5925 3.77187H92.0109C91.9856 4.1396 91.9665 4.57706 91.9539 5.08427C91.9412 5.57879 91.9348 6.2445 91.9348 7.08139H91.5164C91.453 6.61222 91.3325 6.15574 91.155 5.71193C90.9775 5.26813 90.7175 4.9004 90.3752 4.60876C90.0328 4.30444 89.5827 4.15228 89.0248 4.15228C88.6317 4.15228 88.302 4.2664 88.0357 4.49464C87.7821 4.72288 87.6553 5.04623 87.6553 5.46467C87.6553 5.84507 87.7694 6.1811 87.9977 6.47274C88.2259 6.7517 88.5176 7.01799 88.8726 7.27159C89.2403 7.51251 89.6207 7.77879 90.0138 8.07044C90.4703 8.37476 90.8761 8.68542 91.2311 9.00243C91.5861 9.30675 91.8714 9.64911 92.087 10.0295C92.3026 10.3972 92.4104 10.8347 92.4104 11.3419C92.4104 11.9252 92.2455 12.4261 91.9158 12.8445C91.5988 13.2503 91.174 13.5673 90.6415 13.7955C90.1216 14.0111 89.5446 14.1189 88.9106 14.1189C88.5683 14.1189 88.2576 14.0872 87.9786 14.0238C87.6997 13.9604 87.4524 13.8779 87.2369 13.7765C87.072 13.6877 86.9199 13.6053 86.7804 13.5292C86.6536 13.4532 86.5204 13.3898 86.3809 13.339C86.2541 13.2756 86.14 13.301 86.0386 13.4151C85.9498 13.5292 85.8801 13.7194 85.8294 13.9857H85.4109C85.4363 13.58 85.4553 13.0854 85.468 12.5021C85.4807 11.9189 85.487 11.1454 85.487 10.1817H85.9054C85.9942 10.8791 86.1273 11.4941 86.3049 12.0266C86.4951 12.5465 86.7677 12.9586 87.1227 13.2629C87.4778 13.5546 87.9343 13.7004 88.4922 13.7004C88.7331 13.7004 88.9614 13.6497 89.1769 13.5483C89.4052 13.4468 89.589 13.2883 89.7285 13.0727C89.8807 12.8572 89.9567 12.5655 89.9567 12.1978C89.9567 11.6399 89.7665 11.1771 89.3861 10.8093C89.0057 10.4416 88.5302 10.0485 87.9596 9.63009C87.5285 9.31309 87.1227 9.00243 86.7423 8.6981C86.3746 8.39378 86.0703 8.05142 85.8294 7.67101C85.6011 7.29061 85.487 6.84046 85.487 6.32058C85.487 5.74997 85.6328 5.28081 85.9245 4.91308C86.2161 4.53268 86.5965 4.24738 87.0657 4.05718C87.5475 3.85429 88.0611 3.75285 88.6063 3.75285Z" fill="black"/>
<path d="M97.2611 0.899824V4.03816H99.6957V4.41856H97.2611V11.9886C97.2611 12.4451 97.3435 12.7684 97.5084 12.9586C97.6732 13.1488 97.9078 13.2439 98.2121 13.2439C98.5037 13.2439 98.77 13.1361 99.0109 12.9206C99.2519 12.6923 99.4674 12.3183 99.6576 11.7984L100 11.9506C99.8098 12.5719 99.5118 13.0918 99.106 13.5102C98.713 13.916 98.155 14.1189 97.4323 14.1189C97.0012 14.1189 96.6334 14.0618 96.3291 13.9477C96.0375 13.8462 95.7839 13.6941 95.5683 13.4912C95.2893 13.1995 95.0991 12.8508 94.9977 12.4451C94.9089 12.0393 94.8645 11.5004 94.8645 10.8284V4.41856H93.1908V4.03816H94.8645V1.39435C95.321 1.38167 95.7458 1.33729 96.1389 1.26121C96.532 1.18513 96.9061 1.06467 97.2611 0.899824Z" fill="black"/>
</svg>
